<?xml version="1.0" standalone="no"?>
<!DOCTYPE svg PUBLIC "-//W3C//DTD SVG 20010904//EN"
 "http://www.w3.org/TR/2001/REC-SVG-20010904/DTD/svg10.dtd">
<svg version="1.0" xmlns="http://www.w3.org/2000/svg"
 width="175.000000pt" height="164.000000pt" viewBox="0 0 175.000000 164.000000"
 preserveAspectRatio="xMidYMid meet">

<g transform="translate(0.000000,164.000000) scale(0.100000,-0.100000)"
fill="#000000" stroke="none">
<path d="M90 1210 l0 -340 65 0 65 0 0 100 0 100 190 0 190 0 0 240 0 240
-255 0 -255 0 0 -340z m380 100 l0 -140 -125 0 -125 0 0 140 0 140 125 0 125
0 0 -140z"/>
<path d="M690 1260 l0 -290 -190 0 -190 0 0 -50 0 -50 255 0 255 0 0 340 0
340 -65 0 -65 0 0 -290z"/>
<path d="M920 1210 l0 -340 65 0 65 0 0 100 0 100 190 0 190 0 0 240 0 240
-255 0 -255 0 0 -340z m390 100 l0 -140 -130 0 -130 0 0 140 0 140 130 0 130
0 0 -140z"/>
<path d="M1530 1260 l0 -290 -190 0 -190 0 0 -50 0 -50 250 0 250 0 0 340 0
340 -60 0 -60 0 0 -290z"/>
<path d="M90 445 l0 -335 60 0 60 0 0 95 0 95 195 0 195 0 0 240 0 240 -255 0
-255 0 0 -335z m390 95 l0 -140 -135 0 -135 0 0 140 0 140 135 0 135 0 0 -140z"/>
<path d="M698 493 l-3 -288 -192 -3 -193 -2 0 -45 0 -45 255 0 255 0 0 335 0
335 -60 0 -60 0 -2 -287z"/>
<path d="M920 440 l0 -340 65 0 65 0 0 100 0 100 190 0 190 0 0 240 0 240
-255 0 -255 0 0 -340z m388 103 l-3 -138 -127 -3 -128 -3 0 141 0 140 130 0
131 0 -3 -137z"/>
<path d="M1530 495 l0 -285 -192 -2 -193 -3 0 -50 0 -50 253 -3 252 -2 0 340
0 340 -60 0 -60 0 0 -285z"/>
</g>
</svg>
