<?xml version="1.0" encoding="UTF-8"?>
<svg id="Capa_2" data-name="Capa 2" xmlns="http://www.w3.org/2000/svg" viewBox="0 0 847.91 195.63">
  <defs>
    <style>
      .cls-1 {
        fill: #f7931e;
      }

      .cls-1, .cls-2 {
        stroke-width: 0px;
      }

      .cls-2 {
        fill: #003053;
      }
    </style>
  </defs>
  <g id="Capa_1-2" data-name="Capa 1">
    <g>
      <g>
        <path class="cls-2" d="M23.55,84.41c-1.47-4.58-2.18-9.39-2.18-14.51,0-29.16,20.77-50.32,48.53-50.32s47.73,20.37,47.73,47.33c0,6.3-1.15,12.09-3.13,17.51h21.38c1.86-5.84,2.92-12.04,2.92-18.71C138.79,30.35,110.63,0,69.89,0S0,31.15,0,69.89C0,75.02.55,79.84,1.59,84.41h21.96Z"/>
        <path class="cls-2" d="M171.14,84.41v-36.48c0-3.79-2.2-5.99-5.99-5.99h-7.99c-3.79,0-5.99,2.2-5.99,5.99v36.48h19.97Z"/>
        <path class="cls-2" d="M236.24,84.41v-36.48c0-3.79-2.2-5.99-5.99-5.99h-7.99c-3.79,0-5.99,2.2-5.99,5.99v36.48h19.97Z"/>
        <path class="cls-2" d="M267.79,41.94h-7.99c-3.79,0-5.99,2.2-5.99,5.99v36.48h19.97v-36.48c0-3.79-2.2-5.99-5.99-5.99Z"/>
        <path class="cls-2" d="M263.8,29.36c6.99,0,12.38-4.99,12.38-11.98s-5.39-11.98-12.38-11.98-12.38,4.99-12.38,11.98,5.19,11.98,12.38,11.98Z"/>
        <path class="cls-2" d="M311.16,84.41c2.31-16.57,13.92-25.5,28.73-25.5s26.89,10.15,28.55,25.5h20.23c-1.82-26.65-22.48-44.67-48.98-44.67s-46.32,16.87-48.69,44.67h20.16Z"/>
        <path class="cls-2" d="M486.86,84.41v-36.48c0-3.79-2.2-5.99-5.99-5.99h-7.99c-3.79,0-5.99,2.2-5.99,5.99v36.48h19.97Z"/>
        <path class="cls-2" d="M421.76,84.41v-36.48c0-3.79-2.2-5.99-5.99-5.99h-7.99c-3.79,0-5.99,2.2-5.99,5.99v36.48h19.97Z"/>
        <path class="cls-2" d="M526.2,54.52c14.73,13.4,20.4,21.32,21.91,29.89h21.93c-1.62-14.79-10.76-27.43-28.07-43.47-15.18-13.78-21.97-20.57-21.97-32.15-.2-3.99-1.8-6.19-5.79-6.19h-10.78c-3.79,0-6.19,2-5.99,5.79,0,18.37,10.18,29.36,28.76,46.13Z"/>
        <path class="cls-2" d="M599.55,84.41c2.33-13.63,13.49-23.5,30.29-23.5h6.59c3.79,0,5.99-2.2,5.99-5.99v-6.99c0-3.79-2.2-5.99-5.99-5.99h-6.79c-28.63,0-47.9,18.35-50.43,42.47h20.34Z"/>
        <path class="cls-2" d="M669.19,84.41c1.66-15.35,13.73-25.5,28.55-25.5s26.42,8.93,28.73,25.5h20.16c-2.37-27.8-22.28-44.67-48.69-44.67s-47.16,18.02-48.98,44.67h20.23Z"/>
        <path class="cls-2" d="M782.81,84.41v-.34c0-15.58,8.79-25.16,22.57-25.16s22.57,9.59,22.57,25.16v.34h19.97v-.34c0-27.16-17.17-44.33-42.54-44.33s-42.54,17.17-42.54,44.33v.34h19.97Z"/>
      </g>
      <g>
        <path class="cls-2" d="M103.84,163.08l-36.34-18.97c-18.87-9.96-31.47-19.79-38.67-30.81H5.23c8.98,20.24,28.97,35.18,55.48,49.38l40.14,21.37c3.99,2.2,7.19.4,7.19-4.19v-9.78c0-3.2-1.4-5.39-4.19-6.99Z"/>
        <path class="cls-2" d="M109.05,113.3c-3.52,5.63-7.91,10.87-12.8,15.83l-3,2.8c-3,3.39-1.6,6.39,2.8,6.39h12.18c3,0,4.99-.6,6.99-3.2l2.4-2.4c5.32-6.1,10.03-12.51,13.65-19.43h-22.22Z"/>
        <path class="cls-2" d="M216.27,113.3v.26c0,15.58-8.99,25.16-22.57,25.16s-22.57-9.59-22.57-25.16v-.26h-19.97v.26c0,27.16,17.17,44.33,42.54,44.33s42.54-17.17,42.54-44.33v-.26h-19.97Z"/>
        <path class="cls-2" d="M253.82,113.3v36.4c0,3.79,2.2,5.99,5.99,5.99h7.99c3.79,0,5.99-2.2,5.99-5.99v-36.4h-19.97Z"/>
        <path class="cls-2" d="M367.83,113.3c-2.97,13.21-14.09,23.42-31.54,23.42h-6.99c-3.4,0-5.59,2.2-4.39,6.19l2.6,8.39c1,3.19,2.8,4.39,5.99,4.39h5.19c21.24,0,46.05-14.19,49.66-42.39h-20.51Z"/>
        <path class="cls-2" d="M290.76,113.3v76.34c0,3.79,2.2,5.99,5.99,5.99h7.99c3.79,0,5.99-2.2,5.99-5.99v-76.34h-19.97Z"/>
        <path class="cls-2" d="M466.89,113.3v.26c0,15.58-8.99,25.16-22.57,25.16s-22.56-9.59-22.56-25.16v-.26h-19.97v.26c0,27.16,17.17,44.33,42.54,44.33s42.54-17.17,42.54-44.33v-.26h-19.97Z"/>
        <path class="cls-2" d="M548.04,113.3c-3.34,17.06-22.08,22.82-34.22,22.82h-13.18c-4.19,0-6.19,2.6-4.99,6.79l2.6,8.19c.8,3,3,4.59,6.19,4.59h9.59c31.89,0,53.09-16.53,55.97-42.39h-21.94Z"/>
        <path class="cls-2" d="M637.63,136.72h-7.79c-16.74,0-27.88-9.96-30.27-23.42h-20.36c2.53,24.39,21.8,42.39,50.43,42.39h3.99c3.4,0,5.79-1.8,6.79-4.99l2.2-7.19c1.2-3.99-.8-6.79-4.99-6.79Z"/>
        <path class="cls-2" d="M726.9,113.3v36.4c0,3.79,2.2,5.99,5.99,5.99h7.99c3.79,0,5.99-2.2,5.99-5.99v-36.4h-19.97Z"/>
        <path class="cls-2" d="M708.33,136.72h-6.99c-17.45,0-28.57-10.21-31.54-23.42h-20.51c3.61,28.2,28.42,42.39,49.66,42.39h5.19c3.2,0,4.99-1.2,5.99-4.39l2.6-8.39c1.2-3.99-1-6.19-4.39-6.19Z"/>
        <path class="cls-2" d="M827.94,113.3v36.4c0,3.79,2.2,5.99,5.99,5.99h7.99c3.79,0,5.99-2.2,5.99-5.99v-36.4h-19.97Z"/>
        <path class="cls-2" d="M762.84,113.3v36.4c0,3.79,2.2,5.99,5.99,5.99h7.99c3.79,0,5.99-2.2,5.99-5.99v-36.4h-19.97Z"/>
      </g>
      <rect class="cls-1" x="0" y="95.1" width="847.91" height="7.54" rx="3.43" ry="3.43"/>
      <circle class="cls-1" cx="69.39" cy="98.87" r="20.58"/>
      <circle class="cls-1" cx="337.77" cy="98.87" r="20.58"/>
      <circle class="cls-1" cx="517.55" cy="98.87" r="20.58"/>
      <circle class="cls-1" cx="698.2" cy="98.87" r="20.58"/>
      <circle class="cls-1" cx="805.72" cy="98.87" r="20.58"/>
    </g>
  </g>
</svg>